<svg xmlns="http://www.w3.org/2000/svg" width="199.9" height="35" viewBox="0 0 199.9 35"><rect class="svg__rect" x="0" y="0" width="96.79" height="35" fill="#D35B09"/><rect class="svg__rect" x="94.79" y="0" width="105.11" height="35" fill="#E46C17"/><path class="svg__text" d="M16.25 14.66L13.61 14.66L13.61 13.47L20.38 13.47L20.38 14.66L17.72 14.66L17.72 22L16.25 22L16.25 14.66ZM24.00 19.16L24.00 19.16L24.00 13.47L25.48 13.47L25.48 19.18Q25.48 20.03 25.91 20.48Q26.35 20.93 27.19 20.93L27.19 20.93Q28.90 20.93 28.90 19.13L28.90 19.13L28.90 13.47L30.38 13.47L30.38 19.17Q30.38 20.53 29.51 21.32Q28.64 22.12 27.19 22.12L27.19 22.12Q25.73 22.12 24.86 21.33Q24.00 20.55 24.00 19.16ZM36.63 14.66L33.99 14.66L33.99 13.47L40.76 13.47L40.76 14.66L38.10 14.66L38.10 22L36.63 22L36.63 14.66ZM44.25 18.00L44.25 18.00L44.25 17.52Q44.25 16.28 44.69 15.32Q45.13 14.37 45.94 13.86Q46.74 13.35 47.79 13.35Q48.83 13.35 49.63 13.85Q50.44 14.35 50.88 15.29Q51.32 16.23 51.32 17.48L51.32 17.48L51.32 17.96Q51.32 19.21 50.89 20.16Q50.46 21.10 49.65 21.61Q48.85 22.12 47.80 22.12L47.80 22.12Q46.76 22.12 45.95 21.61Q45.14 21.10 44.69 20.17Q44.25 19.23 44.25 18.00ZM45.73 17.46L45.73 17.96Q45.73 19.36 46.28 20.13Q46.82 20.90 47.80 20.90L47.80 20.90Q48.78 20.90 49.31 20.15Q49.84 19.40 49.84 17.96L49.84 17.96L49.84 17.51Q49.84 16.09 49.31 15.34Q48.77 14.58 47.79 14.58L47.79 14.58Q46.82 14.58 46.28 15.33Q45.74 16.09 45.73 17.46L45.73 17.46ZM57.27 22L55.79 22L55.79 13.47L58.79 13.47Q60.27 13.47 61.07 14.13Q61.87 14.79 61.87 16.05L61.87 16.05Q61.87 16.90 61.46 17.48Q61.05 18.06 60.31 18.37L60.31 18.37L62.22 21.92L62.22 22L60.64 22L58.92 18.71L57.27 18.71L57.27 22ZM57.27 14.66L57.27 17.52L58.80 17.52Q59.55 17.52 59.97 17.15Q60.39 16.77 60.39 16.11L60.39 16.11Q60.39 15.43 60.00 15.05Q59.61 14.68 58.84 14.66L58.84 14.66L57.27 14.66ZM71.84 22L66.27 22L66.27 13.47L71.80 13.47L71.80 14.66L67.75 14.66L67.75 17.02L71.25 17.02L71.25 18.19L67.75 18.19L67.75 20.82L71.84 20.82L71.84 22ZM78.49 22L76.04 22L76.04 13.47L78.56 13.47Q79.69 13.47 80.57 13.97Q81.44 14.48 81.92 15.40Q82.40 16.33 82.40 17.52L82.40 17.52L82.40 17.95Q82.40 19.16 81.92 20.08Q81.44 21.00 80.54 21.50Q79.65 22 78.49 22L78.49 22ZM77.52 14.66L77.52 20.82L78.49 20.82Q79.65 20.82 80.28 20.09Q80.90 19.36 80.91 17.99L80.91 17.99L80.91 17.52Q80.91 16.13 80.31 15.40Q79.71 14.66 78.56 14.66L78.56 14.66L77.52 14.66Z" fill="#FFFFFF"/><path class="svg__text" d="M111.36 22L108.98 22L108.98 13.60L112.82 13.60Q113.96 13.60 114.80 13.98Q115.64 14.35 116.10 15.06Q116.55 15.76 116.55 16.71L116.55 16.71Q116.55 17.66 116.10 18.35Q115.64 19.05 114.80 19.42Q113.96 19.80 112.82 19.80L112.82 19.80L111.36 19.80L111.36 22ZM111.36 15.47L111.36 17.93L112.68 17.93Q113.41 17.93 113.78 17.61Q114.15 17.29 114.15 16.71L114.15 16.71Q114.15 16.12 113.78 15.80Q113.41 15.47 112.68 15.47L112.68 15.47L111.36 15.47ZM123.68 22L121.31 22L121.31 13.60L125.15 13.60Q126.29 13.60 127.13 13.98Q127.97 14.35 128.43 15.06Q128.88 15.76 128.88 16.71L128.88 16.71Q128.88 17.62 128.45 18.30Q128.03 18.98 127.24 19.36L127.24 19.36L129.05 22L126.50 22L124.98 19.77L123.68 19.77L123.68 22ZM123.68 15.47L123.68 17.93L125.00 17.93Q125.74 17.93 126.11 17.61Q126.48 17.29 126.48 16.71L126.48 16.71Q126.48 16.12 126.11 15.79Q125.74 15.47 125.00 15.47L125.00 15.47L123.68 15.47ZM133.24 17.80L133.24 17.80Q133.24 16.55 133.85 15.55Q134.45 14.56 135.51 14.00Q136.58 13.43 137.91 13.43L137.91 13.43Q139.24 13.43 140.30 14.00Q141.36 14.56 141.97 15.55Q142.58 16.55 142.58 17.80L142.58 17.80Q142.58 19.05 141.97 20.04Q141.36 21.04 140.30 21.60Q139.24 22.17 137.91 22.17L137.91 22.17Q136.58 22.17 135.51 21.60Q134.45 21.04 133.85 20.04Q133.24 19.05 133.24 17.80ZM135.64 17.80L135.64 17.80Q135.64 18.51 135.94 19.05Q136.24 19.60 136.76 19.90Q137.27 20.20 137.91 20.20L137.91 20.20Q138.54 20.20 139.06 19.90Q139.58 19.60 139.87 19.05Q140.17 18.51 140.17 17.80L140.17 17.80Q140.17 17.09 139.87 16.54Q139.58 16 139.06 15.70Q138.54 15.40 137.91 15.40L137.91 15.40Q137.27 15.40 136.75 15.70Q136.24 16 135.94 16.54Q135.64 17.09 135.64 17.80ZM146.23 20.93L146.23 20.93L147.52 19.40Q148.19 20.27 148.96 20.27L148.96 20.27Q148.97 20.27 148.97 20.27L148.97 20.27Q149.49 20.27 149.76 19.96Q150.03 19.65 150.03 19.05L150.03 19.05L150.03 15.44L147.13 15.44L147.13 13.60L152.38 13.60L152.38 18.91Q152.38 20.54 151.56 21.36Q150.74 22.17 149.14 22.17L149.14 22.17Q148.22 22.17 147.46 21.85Q146.71 21.53 146.23 20.93ZM164.21 22L157.47 22L157.47 13.60L164.06 13.60L164.06 15.44L159.83 15.44L159.83 16.85L163.56 16.85L163.56 18.63L159.83 18.63L159.83 20.17L164.21 20.17L164.21 22ZM168.59 17.80L168.59 17.80Q168.59 16.54 169.19 15.54Q169.79 14.55 170.84 13.99Q171.89 13.43 173.21 13.43L173.21 13.43Q174.36 13.43 175.29 13.84Q176.21 14.25 176.82 15.02L176.82 15.02L175.31 16.39Q174.50 15.40 173.33 15.40L173.33 15.40Q172.65 15.40 172.11 15.70Q171.58 16 171.28 16.54Q170.99 17.09 170.99 17.80L170.99 17.80Q170.99 18.51 171.28 19.05Q171.58 19.60 172.11 19.90Q172.65 20.20 173.33 20.20L173.33 20.20Q174.50 20.20 175.31 19.22L175.31 19.22L176.82 20.58Q176.21 21.35 175.29 21.76Q174.36 22.17 173.21 22.17L173.21 22.17Q171.89 22.17 170.84 21.61Q169.79 21.05 169.19 20.05Q168.59 19.06 168.59 17.80ZM183.15 15.48L180.57 15.48L180.57 13.60L188.09 13.60L188.09 15.48L185.52 15.48L185.52 22L183.15 22L183.15 15.48Z" fill="#FFFFFF" x="107.79"/></svg>
