<svg xmlns="http://www.w3.org/2000/svg" width="158.13" height="35" viewBox="0 0 158.13 35"><rect class="svg__rect" x="0" y="0" width="94.22" height="35" fill="#31C4F3"/><rect class="svg__rect" x="92.22" y="0" width="65.91" height="35" fill="#389AD5"/><path class="svg__text" d="M15.60 22L13.63 13.47L15.10 13.47L16.43 19.88L18.06 13.47L19.30 13.47L20.91 19.89L22.22 13.47L23.69 13.47L21.72 22L20.31 22L18.68 15.77L17.02 22L15.60 22ZM33.34 22L27.76 22L27.76 13.47L33.30 13.47L33.30 14.66L29.25 14.66L29.25 17.02L32.75 17.02L32.75 18.19L29.25 18.19L29.25 20.82L33.34 20.82L33.34 22ZM40.65 22L37.54 22L37.54 13.47L40.46 13.47Q41.91 13.47 42.66 14.05Q43.42 14.63 43.42 15.78L43.42 15.78Q43.42 16.36 43.10 16.83Q42.79 17.30 42.18 17.56L42.18 17.56Q42.87 17.75 43.25 18.26Q43.63 18.78 43.63 19.51L43.63 19.51Q43.63 20.71 42.85 21.36Q42.08 22 40.65 22L40.65 22ZM39.02 18.15L39.02 20.82L40.67 20.82Q41.36 20.82 41.76 20.47Q42.15 20.13 42.15 19.51L42.15 19.51Q42.15 18.18 40.79 18.15L40.79 18.15L39.02 18.15ZM39.02 14.66L39.02 17.06L40.47 17.06Q41.16 17.06 41.55 16.75Q41.94 16.43 41.94 15.86L41.94 15.86Q41.94 15.23 41.58 14.95Q41.22 14.66 40.46 14.66L40.46 14.66L39.02 14.66ZM47.66 19.42L47.66 19.42L49.14 19.42Q49.14 20.15 49.63 20.55Q50.11 20.95 51.00 20.95L51.00 20.95Q51.78 20.95 52.17 20.63Q52.56 20.32 52.56 19.80L52.56 19.80Q52.56 19.24 52.16 18.94Q51.76 18.63 50.73 18.32Q49.70 18.01 49.09 17.63L49.09 17.63Q47.93 16.90 47.93 15.72L47.93 15.72Q47.93 14.69 48.77 14.02Q49.61 13.35 50.95 13.35L50.95 13.35Q51.84 13.35 52.54 13.68Q53.23 14.01 53.63 14.61Q54.03 15.22 54.03 15.96L54.03 15.96L52.56 15.96Q52.56 15.29 52.14 14.91Q51.72 14.54 50.94 14.54L50.94 14.54Q50.21 14.54 49.81 14.85Q49.41 15.16 49.41 15.71L49.41 15.71Q49.41 16.18 49.84 16.50Q50.28 16.81 51.27 17.10Q52.27 17.40 52.87 17.78Q53.48 18.16 53.76 18.65Q54.04 19.13 54.04 19.79L54.04 19.79Q54.04 20.86 53.22 21.49Q52.40 22.12 51.00 22.12L51.00 22.12Q50.08 22.12 49.30 21.77Q48.52 21.43 48.09 20.83Q47.66 20.22 47.66 19.42ZM59.89 22L58.41 22L58.41 13.47L59.89 13.47L59.89 22ZM66.38 14.66L63.75 14.66L63.75 13.47L70.51 13.47L70.51 14.66L67.85 14.66L67.85 22L66.38 22L66.38 14.66ZM79.85 22L74.27 22L74.27 13.47L79.81 13.47L79.81 14.66L75.75 14.66L75.75 17.02L79.26 17.02L79.26 18.19L75.75 18.19L75.75 20.82L79.85 20.82L79.85 22Z" fill="#FFFFFF"/><path class="svg__text" d="M112.79 22L106.41 22L106.41 13.60L108.79 13.60L108.79 20.11L112.79 20.11L112.79 22ZM119.59 22L117.21 22L117.21 13.60L119.59 13.60L119.59 22ZM127.10 22L124.77 22L124.77 13.60L126.72 13.60L130.43 18.07L130.43 13.60L132.76 13.60L132.76 22L130.81 22L127.10 17.52L127.10 22ZM140.28 22L137.92 22L137.92 13.60L140.28 13.60L140.28 17.09L143.53 13.60L146.14 13.60L142.71 17.32L146.32 22L143.56 22L141.16 18.95L140.28 19.90L140.28 22Z" fill="#FFFFFF" x="105.22"/></svg>